<mxfile host="app.diagrams.net" modified="2024-04-27T20:02:27.262Z" agent="Mozilla/5.0 (Macintosh; Intel Mac OS X 10_15_7) AppleWebKit/605.1.15 (KHTML, like Gecko) Version/17.4.1 Safari/605.1.15" version="24.3.0" etag="j6t2QSbjhVGytuOOBMAb" type="github">
  <diagram name="Page-1" id="KW7jhdMtPTlHOynZr6vN">
    <mxGraphModel>
      <root>
        <mxCell id="0" />
        <mxCell id="1" parent="0" />
      </root>
    </mxGraphModel>
  </diagram>
</mxfile>
